<svg width="25" height="24" viewBox="0 0 25 24" fill="none" xmlns="http://www.w3.org/2000/svg">
<path d="M12.6838 0.467041L24.9848 5.38744V7.02758H23.3447C23.3447 7.24968 23.2571 7.44188 23.082 7.60419C22.9069 7.76649 22.6997 7.84764 22.4605 7.84764H2.90708C2.66789 7.84764 2.46074 7.76649 2.28562 7.60419C2.11051 7.44188 2.02295 7.24968 2.02295 7.02758H0.382812V5.38744L12.6838 0.467041ZM3.66308 8.66771H6.94335V18.5085H8.58348V8.66771H11.8637V18.5085H13.5039V8.66771H16.7841V18.5085H18.4243V8.66771H21.7045V18.5085H22.4605C22.6997 18.5085 22.9069 18.5897 23.082 18.752C23.2571 18.9143 23.3447 19.1065 23.3447 19.3286V20.1486H2.02295V19.3286C2.02295 19.1065 2.11051 18.9143 2.28562 18.752C2.46074 18.5897 2.66789 18.5085 2.90708 18.5085H3.66308V8.66771ZM24.1007 20.9687C24.3399 20.9687 24.547 21.0499 24.7221 21.2122C24.8973 21.3745 24.9848 21.5667 24.9848 21.7888V23.4289H0.382812V21.7888C0.382812 21.5667 0.470372 21.3745 0.64549 21.2122C0.820609 21.0499 1.02776 20.9687 1.26695 20.9687H24.1007Z" fill="#0E2C75"/>
</svg>
