<svg width="29" height="28" viewBox="0 0 29 28" fill="none" xmlns="http://www.w3.org/2000/svg">
<path d="M18.0293 12.8571H20.1722V22.4999" stroke="#0E2C75" stroke-width="2.73356" stroke-linecap="round" stroke-linejoin="round"/>
<path d="M18.0293 22.5H22.315" stroke="#0E2C75" stroke-width="2.73356" stroke-linecap="round" stroke-linejoin="round"/>
<mask id="path-3-inside-1_2558_1806" fill="white">
<path d="M3.02958 4.28564C2.46125 4.28564 1.91621 4.51141 1.51435 4.91327C1.11248 5.31514 0.886719 5.86018 0.886719 6.4285V25.7142C0.886719 26.2825 1.11248 26.8276 1.51435 27.2294C1.91621 27.6313 2.46125 27.8571 3.02958 27.8571H26.601C27.1693 27.8571 27.7144 27.6313 28.1162 27.2294C28.5181 26.8276 28.7439 26.2825 28.7439 25.7142V6.4285C28.7439 5.86018 28.5181 5.31514 28.1162 4.91327C27.7144 4.51141 27.1693 4.28564 26.601 4.28564H22.3153"/>
</mask>
<path d="M3.02958 7.0192C4.53928 7.0192 5.76313 5.79535 5.76313 4.28564C5.76313 2.77594 4.53928 1.55209 3.02958 1.55209V7.0192ZM0.886719 6.4285H-1.84684H0.886719ZM0.886719 25.7142H-1.84684H0.886719ZM26.601 4.28564V1.55209V4.28564ZM22.3153 1.55209C20.8056 1.55209 19.5817 2.77594 19.5817 4.28564C19.5817 5.79535 20.8056 7.0192 22.3153 7.0192V1.55209ZM3.02958 1.55209C1.73627 1.55209 0.495936 2.06585 -0.418569 2.98036L3.44726 6.84619C3.33649 6.95697 3.18624 7.0192 3.02958 7.0192V1.55209ZM-0.418569 2.98036C-1.33307 3.89486 -1.84684 5.1352 -1.84684 6.4285H3.62027C3.62027 6.58516 3.55804 6.73541 3.44726 6.84619L-0.418569 2.98036ZM-1.84684 6.4285V25.7142H3.62027V6.4285H-1.84684ZM-1.84684 25.7142C-1.84684 27.0075 -1.33307 28.2479 -0.418569 29.1624L3.44726 25.2965C3.55804 25.4073 3.62027 25.5575 3.62027 25.7142H-1.84684ZM-0.418569 29.1624C0.495935 30.0769 1.73627 30.5906 3.02958 30.5906V25.1235C3.18624 25.1235 3.33649 25.1857 3.44726 25.2965L-0.418569 29.1624ZM3.02958 30.5906H26.601V25.1235H3.02958V30.5906ZM26.601 30.5906C27.8943 30.5906 29.1346 30.0769 30.0491 29.1624L26.1833 25.2965C26.2941 25.1857 26.4443 25.1235 26.601 25.1235V30.5906ZM30.0491 29.1624C30.9637 28.2479 31.4774 27.0075 31.4774 25.7142H26.0103C26.0103 25.5575 26.0725 25.4073 26.1833 25.2965L30.0491 29.1624ZM31.4774 25.7142V6.4285H26.0103V25.7142H31.4774ZM31.4774 6.4285C31.4774 5.13519 30.9637 3.89486 30.0491 2.98036L26.1833 6.84619C26.0725 6.73541 26.0103 6.58517 26.0103 6.4285H31.4774ZM30.0491 2.98036C29.1346 2.06585 27.8943 1.55209 26.601 1.55209V7.0192C26.4443 7.0192 26.2941 6.95697 26.1833 6.84619L30.0491 2.98036ZM26.601 1.55209H22.3153V7.0192H26.601V1.55209Z" fill="#0E2C75" mask="url(#path-3-inside-1_2558_1806)"/>
<path d="M7.31641 0V8.57143" stroke="#0E2C75" stroke-width="2.73356" stroke-linecap="round" stroke-linejoin="round"/>
<path d="M22.3164 0V8.57143" stroke="#0E2C75" stroke-width="2.73356" stroke-linecap="round" stroke-linejoin="round"/>
<path d="M7.31641 4.28564H18.0307" stroke="#0E2C75" stroke-width="2.73356" stroke-linecap="round" stroke-linejoin="round"/>
<path d="M7.31641 12.8571H12.6735L9.45926 17.1428C9.45926 17.1428 12.6735 17.1428 12.6735 19.2856C12.734 19.7219 12.6925 20.1662 12.5524 20.5838C12.4122 21.0013 12.1772 21.3807 11.8658 21.6922C11.5544 22.0036 11.175 22.2386 10.7574 22.3788C10.3399 22.5189 9.89553 22.5604 9.45926 22.4999H7.31641" stroke="#0E2C75" stroke-width="2.73356" stroke-linecap="round" stroke-linejoin="round"/>
</svg>
